<svg xmlns="http://www.w3.org/2000/svg" xmlns:xlink="http://www.w3.org/1999/xlink" viewBox="0 0 545.33 336"><defs><style>.cls-1{fill:none;}.cls-2{isolation:isolate;}.cls-3{fill:#fff;}.cls-4{opacity:0.13;mix-blend-mode:multiply;}.cls-5{clip-path:url(#clip-path);}.cls-6{fill:#fefefe;}.cls-7{fill:#fdfdfd;}.cls-8{fill:#fcfcfc;}.cls-9{fill:#fbfbfb;}.cls-10{fill:#fafafa;}.cls-11{fill:#f9f9f9;}.cls-12{fill:#f8f8f8;}.cls-13{fill:#f7f7f7;}.cls-14{fill:#f6f6f6;}.cls-15{fill:#f5f5f5;}.cls-16{fill:#f4f4f4;}.cls-17{fill:#f3f3f3;}.cls-18{fill:#f2f2f2;}.cls-19{fill:#f1f1f1;}.cls-20{fill:#f0f0f0;}.cls-21{fill:#efefef;}.cls-22{fill:#eee;}.cls-23{fill:#ededed;}.cls-24{fill:#ececec;}.cls-25{fill:#ebebeb;}.cls-26{fill:#eaeaea;}.cls-27{fill:#e9e9e9;}.cls-28{fill:#e8e8e8;}.cls-29{fill:#e7e7e7;}.cls-30{fill:#e6e6e6;}.cls-31{fill:#e5e5e5;}.cls-32{fill:#e4e4e4;}.cls-33{fill:#e3e3e3;}.cls-34{fill:#e2e2e2;}.cls-35{fill:#e1e1e1;}.cls-36{fill:#e0e0e0;}.cls-37{fill:#dfdfdf;}.cls-38{fill:#dedede;}.cls-39{fill:#ddd;}.cls-40{fill:#dcdcdc;}.cls-41{fill:#dbdbdb;}.cls-42{fill:#dadada;}.cls-43{fill:#d9d9d9;}.cls-44{fill:#d8d8d8;}.cls-45{fill:#d7d7d7;}.cls-46{fill:#d6d6d6;}.cls-47{fill:#d5d5d5;}.cls-48{fill:#d4d4d4;}.cls-49{fill:#d3d3d3;}.cls-50{fill:#d2d2d2;}.cls-51{fill:#d1d1d1;}.cls-52{fill:#d0d0d0;}.cls-53{fill:#cfcfcf;}.cls-54{fill:#cecece;}.cls-55{fill:#cdcdcd;}.cls-56{fill:#ccc;}.cls-57{fill:#cbcbcb;}.cls-58{fill:#cacaca;}.cls-59{fill:#c9c9c9;}.cls-60{fill:#c8c8c8;}.cls-61{fill:#c7c7c7;}.cls-62{fill:#c6c6c6;}.cls-63{fill:#c5c5c5;}.cls-64{fill:#c4c4c4;}.cls-65{fill:#c3c3c3;}.cls-66{fill:#c2c2c2;}.cls-67{fill:#c1c1c1;}.cls-68{fill:silver;}.cls-69{fill:#bfbfbf;}.cls-70{fill:#bebebe;}.cls-71{fill:#bdbdbd;}.cls-72{fill:#bcbcbc;}.cls-73{fill:#bbb;}.cls-74{fill:#bababa;}.cls-75{fill:#b9b9b9;}.cls-76{fill:#b8b8b8;}.cls-77{fill:#b7b7b7;}.cls-78{fill:#b6b6b6;}.cls-79{fill:#b5b5b5;}.cls-80{fill:#b4b4b4;}.cls-81{fill:#b3b3b3;}.cls-82{fill:#b2b2b2;}.cls-83{fill:#b1b1b1;}.cls-84{fill:#b0b0b0;}.cls-85{fill:#afafaf;}.cls-86{fill:#aeaeae;}.cls-87{fill:#adadad;}.cls-88{fill:#acacac;}.cls-89{fill:#ababab;}.cls-90{fill:#aaa;}.cls-91{fill:#a9a9a9;}.cls-92{fill:#a8a8a8;}.cls-93{fill:#a7a7a7;}.cls-94{fill:#a6a6a6;}.cls-95{fill:#a5a5a5;}.cls-96{fill:#a4a4a4;}.cls-97{fill:#a3a3a3;}.cls-98{fill:#a2a2a2;}.cls-99{fill:#a1a1a1;}.cls-100{fill:#a0a0a0;}.cls-101{fill:#9f9f9f;}.cls-102{fill:#9e9e9e;}.cls-103{fill:#9d9d9d;}.cls-104{fill:#9c9c9c;}.cls-105{fill:#9b9b9b;}.cls-106{fill:#9a9a9a;}.cls-107{fill:#999;}.cls-108{fill:#989898;}.cls-109{fill:#979797;}.cls-110{fill:#969696;}.cls-111{fill:#959595;}.cls-112{fill:#949494;}.cls-113{fill:#939393;}.cls-114{fill:#929292;}.cls-115{fill:#919191;}.cls-116{fill:#909090;}.cls-117{fill:#8f8f8f;}.cls-118{fill:#8e8e8e;}.cls-119{fill:#8d8d8d;}.cls-120{fill:#8c8c8c;}.cls-121{fill:#8b8b8b;}.cls-122{fill:#8a8a8a;}.cls-123{fill:#898989;}.cls-124{fill:#888;}.cls-125{fill:#878787;}.cls-126{fill:#868686;}.cls-127{fill:#858585;}.cls-128{fill:#848484;}.cls-129{fill:#838383;}.cls-130{fill:#828282;}.cls-131{fill:#818181;}.cls-132{fill:gray;}.cls-133{fill:#7f7f7f;}.cls-134{fill:#7d7d7d;}.cls-135{fill:#7c7c7c;}.cls-136{fill:#7b7b7b;}.cls-137{fill:#7a7a7a;}.cls-138{fill:#797979;}.cls-139{fill:#787878;}.cls-140{fill:#767676;}.cls-141{fill:#747474;}.cls-142{fill:#737373;}.cls-143{fill:#727272;}.cls-144{fill:#707070;}.cls-145{fill:#6e6e6e;}.cls-146{fill:#6d6d6d;}.cls-147{fill:#6c6c6c;}.cls-148{fill:#6b6b6b;}.cls-149{fill:#6a6a6a;}.cls-150{fill:#696969;}.cls-151{fill:#676767;}.cls-152{fill:#666;}.cls-153{fill:#656565;}.cls-154{fill:#646464;}.cls-155{fill:#636363;}.cls-156{fill:#626262;}.cls-157{fill:#616161;}.cls-158{fill:#606060;}.cls-159{fill:#5f5f5f;}.cls-160{fill:#5d5d5d;}.cls-161{fill:#5c5c5c;}.cls-162{fill:#5b5b5b;}.cls-163{fill:#5a5a5a;}.cls-164{fill:#595959;}.cls-165{fill:#575757;}.cls-166{fill:#565656;}.cls-167{fill:#555;}.cls-168{fill:#545454;}.cls-169{fill:#535353;}.cls-170{fill:#525252;}.cls-171{fill:#515151;}.cls-172{fill:#505050;}.cls-173{fill:#4f4f4f;}.cls-174{fill:#4d4d4d;}.cls-175{opacity:0.3;}.cls-176{fill:url(#linear-gradient);}.cls-177{fill:url(#linear-gradient-2);}.cls-178{fill:url(#linear-gradient-3);}.cls-179{fill:url(#linear-gradient-4);}.cls-180{fill:url(#linear-gradient-5);}.cls-181{fill:url(#linear-gradient-6);}.cls-182{fill:url(#linear-gradient-7);}.cls-183{fill:url(#linear-gradient-8);}.cls-184{fill:#fbac66;}.cls-185{fill:url(#Áåçûìÿííûé_ãðàäèåíò_5);}.cls-186{fill:url(#linear-gradient-9);}.cls-187{fill:url(#linear-gradient-10);}.cls-188{fill:#e04442;}.cls-189,.cls-193{opacity:0.88;}.cls-189{fill:url(#linear-gradient-11);}.cls-190{fill:url(#Áåçûìÿííûé_ãðàäèåíò_5-2);}.cls-191{fill:url(#linear-gradient-12);}.cls-192{fill:url(#linear-gradient-13);}.cls-193{fill:url(#linear-gradient-14);}</style><clipPath id="clip-path"><ellipse class="cls-1" cx="270.5" cy="290.97" rx="88" ry="12.94"/></clipPath><linearGradient id="linear-gradient" x1="142.3" y1="226.57" x2="190.74" y2="143.9" gradientUnits="userSpaceOnUse"><stop offset="0" stop-color="#ff9866"/><stop offset="0.31" stop-color="#f9b466"/><stop offset="0.67" stop-color="#f27565"/><stop offset="1" stop-color="#de3e3e"/></linearGradient><linearGradient id="linear-gradient-2" x1="139.97" y1="225.2" x2="188.41" y2="142.53" xlink:href="#linear-gradient"/><linearGradient id="linear-gradient-3" x1="98.81" y1="201.08" x2="147.26" y2="118.42" xlink:href="#linear-gradient"/><linearGradient id="linear-gradient-4" x1="149.2" y1="230.61" x2="197.64" y2="147.94" xlink:href="#linear-gradient"/><linearGradient id="linear-gradient-5" x1="98.72" y1="201.03" x2="147.16" y2="118.36" xlink:href="#linear-gradient"/><linearGradient id="linear-gradient-6" x1="120.7" y1="213.91" x2="169.15" y2="131.24" xlink:href="#linear-gradient"/><linearGradient id="linear-gradient-7" x1="119.89" y1="213.43" x2="168.34" y2="130.77" xlink:href="#linear-gradient"/><linearGradient id="linear-gradient-8" x1="132.38" y1="220.75" x2="180.83" y2="138.09" xlink:href="#linear-gradient"/><linearGradient id="Áåçûìÿííûé_ãðàäèåíò_5" x1="-9080.1" y1="4467.09" x2="-9004.44" y2="4467.09" gradientTransform="matrix(0.78, 0.45, -0.2, 1.04, 8319.19, -420.04)" gradientUnits="userSpaceOnUse"><stop offset="0" stop-color="#e1e1e1"/><stop offset="1" stop-color="#d0d0d0"/></linearGradient><linearGradient id="linear-gradient-9" x1="-8986.8" y1="4507.28" x2="-9027.99" y2="4462.61" gradientTransform="matrix(0.78, 0.45, -0.2, 1.04, 8319.19, -420.04)" xlink:href="#linear-gradient"/><linearGradient id="linear-gradient-10" x1="10419.01" y1="4507.35" x2="10377.82" y2="4462.68" gradientTransform="matrix(-0.78, -0.45, -0.2, 1.04, 9351.06, 175.81)" xlink:href="#linear-gradient"/><linearGradient id="linear-gradient-11" x1="-9067.55" y1="4436.33" x2="-9002.48" y2="4470.82" gradientTransform="matrix(0.78, 0.45, -0.2, 1.04, 8319.19, -420.04)" xlink:href="#linear-gradient"/><linearGradient id="Áåçûìÿííûé_ãðàäèåíò_5-2" x1="6237.01" y1="-2150.23" x2="6428.15" y2="-2150.23" gradientTransform="matrix(-0.78, 0.45, 0.2, 1.04, 5628.61, -420.04)" xlink:href="#Áåçûìÿííûé_ãðàäèåíò_5"/><linearGradient id="linear-gradient-12" x1="6472.72" y1="-2048.72" x2="6368.66" y2="-2161.55" gradientTransform="matrix(-0.78, 0.45, 0.2, 1.04, 5628.61, -420.04)" xlink:href="#linear-gradient"/><linearGradient id="linear-gradient-13" x1="-4871.08" y1="-2048.74" x2="-4975.13" y2="-2161.57" gradientTransform="matrix(0.78, -0.45, 0.2, 1.04, 4596.73, 175.81)" xlink:href="#linear-gradient"/><linearGradient id="linear-gradient-14" x1="6268.73" y1="-2227.94" x2="6433.11" y2="-2140.81" gradientTransform="matrix(-0.78, 0.45, 0.2, 1.04, 5628.61, -420.04)" xlink:href="#linear-gradient"/></defs><title>contact_usAsset 80</title><g class="cls-2"><g id="Layer_2" data-name="Layer 2"><g id="Layer_1-2" data-name="Layer 1"><rect class="cls-1" width="545.33" height="336"/><path class="cls-3" d="M206.22,216.51l3.07-1.78,3.07,1.77-3.08,1.77Z"/><path class="cls-3" d="M212.76,220.28l3.07-1.78,3.06,1.77L215.82,222Z"/><path class="cls-3" d="M219.29,224.05l3.07-1.77,3.06,1.76-3.07,1.78Z"/><path class="cls-3" d="M225.82,227.82l3.08-1.77,3.06,1.77-3.07,1.77Z"/><path class="cls-3" d="M232.36,231.6l3.07-1.78,3.06,1.77-3.07,1.77Z"/><g class="cls-4"><g class="cls-5"><rect class="cls-3" x="182.5" y="278.02" width="176" height="25.89"/><ellipse class="cls-3" cx="270.29" cy="291.51" rx="78.79" ry="10.58" transform="translate(-1.64 1.53) rotate(-0.32)"/><ellipse class="cls-3" cx="270.02" cy="291.51" rx="78.48" ry="10.54" transform="translate(-1.64 1.53) rotate(-0.32)"/><ellipse class="cls-3" cx="269.76" cy="291.51" rx="78.17" ry="10.49" transform="translate(-1.64 1.53) rotate(-0.32)"/><ellipse class="cls-3" cx="269.49" cy="291.51" rx="77.87" ry="10.45" transform="translate(-1.64 1.52) rotate(-0.32)"/><ellipse class="cls-3" cx="269.22" cy="291.51" rx="77.56" ry="10.41" transform="translate(-1.64 1.52) rotate(-0.32)"/><ellipse class="cls-3" cx="268.95" cy="291.52" rx="77.25" ry="10.37" transform="matrix(1, -0.01, 0.01, 1, -1.64, 1.52)"/><ellipse class="cls-3" cx="268.68" cy="291.52" rx="76.94" ry="10.33" transform="translate(-1.64 1.52) rotate(-0.32)"/><ellipse class="cls-6" cx="268.41" cy="291.52" rx="76.63" ry="10.29" transform="translate(-1.64 1.52) rotate(-0.32)"/><ellipse class="cls-6" cx="268.14" cy="291.52" rx="76.32" ry="10.25" transform="translate(-1.64 1.52) rotate(-0.32)"/><ellipse class="cls-6" cx="267.87" cy="291.52" rx="76.01" ry="10.2" transform="translate(-1.64 1.52) rotate(-0.32)"/><ellipse class="cls-6" cx="267.6" cy="291.52" rx="75.7" ry="10.16" transform="translate(-1.64 1.51) rotate(-0.32)"/><ellipse class="cls-6" cx="267.33" cy="291.52" rx="75.39" ry="10.12" transform="translate(-1.64 1.51) rotate(-0.32)"/><ellipse class="cls-6" cx="267.06" cy="291.53" rx="75.08" ry="10.08" transform="translate(-1.64 1.51) rotate(-0.32)"/><ellipse class="cls-6" cx="266.79" cy="291.53" rx="74.78" ry="10.04" transform="matrix(1, -0.01, 0.01, 1, -1.64, 1.51)"/><ellipse class="cls-7" cx="266.52" cy="291.53" rx="74.47" ry="10" transform="translate(-1.64 1.51) rotate(-0.32)"/><ellipse class="cls-7" cx="266.25" cy="291.53" rx="74.16" ry="9.96" transform="translate(-1.64 1.51) rotate(-0.32)"/><ellipse class="cls-7" cx="265.98" cy="291.53" rx="73.85" ry="9.91" transform="translate(-1.64 1.51) rotate(-0.32)"/><ellipse class="cls-7" cx="265.71" cy="291.53" rx="73.54" ry="9.87" transform="translate(-1.64 1.5) rotate(-0.32)"/><path class="cls-7" d="M338.67,291.12c0,5.43-32.73,10-73.18,10.25s-73.25-4-73.28-9.42,32.73-10,73.17-10.25S338.64,285.69,338.67,291.12Z"/><ellipse class="cls-8" cx="265.17" cy="291.54" rx="72.92" ry="9.79" transform="translate(-1.64 1.5) rotate(-0.32)"/><ellipse class="cls-8" cx="264.9" cy="291.54" rx="72.61" ry="9.75" transform="translate(-1.64 1.5) rotate(-0.32)"/><ellipse class="cls-8" cx="264.63" cy="291.54" rx="72.3" ry="9.71" transform="translate(-1.64 1.5) rotate(-0.32)"/><ellipse class="cls-8" cx="264.36" cy="291.54" rx="71.99" ry="9.67" transform="translate(-1.64 1.5) rotate(-0.32)"/><ellipse class="cls-9" cx="264.09" cy="291.54" rx="71.69" ry="9.62" transform="translate(-1.64 1.49) rotate(-0.32)"/><ellipse class="cls-9" cx="263.82" cy="291.54" rx="71.38" ry="9.58" transform="translate(-1.64 1.49) rotate(-0.32)"/><ellipse class="cls-10" cx="263.55" cy="291.54" rx="71.07" ry="9.54" transform="translate(-1.64 1.49) rotate(-0.32)"/><ellipse class="cls-10" cx="263.28" cy="291.54" rx="70.76" ry="9.5" transform="matrix(1, -0.01, 0.01, 1, -1.64, 1.49)"/><ellipse class="cls-10" cx="263.01" cy="291.55" rx="70.45" ry="9.46" transform="translate(-1.64 1.49) rotate(-0.32)"/><path class="cls-11" d="M332.88,291.15c0,5.2-31.35,9.6-70.09,9.81s-70.16-3.82-70.19-9,31.35-9.59,70.09-9.81S332.85,286,332.88,291.15Z"/><ellipse class="cls-11" cx="262.47" cy="291.55" rx="69.83" ry="9.37" transform="translate(-1.64 1.49) rotate(-0.32)"/><ellipse class="cls-11" cx="262.2" cy="291.55" rx="69.52" ry="9.33" transform="translate(-1.64 1.48) rotate(-0.32)"/><path class="cls-12" d="M331.14,291.16c0,5.13-30.93,9.47-69.16,9.68s-69.23-3.77-69.26-8.9,30.93-9.46,69.16-9.68S331.11,286,331.14,291.16Z"/><ellipse class="cls-12" cx="261.66" cy="291.55" rx="68.9" ry="9.25" transform="translate(-1.64 1.48) rotate(-0.32)"/><ellipse class="cls-12" cx="261.39" cy="291.55" rx="68.6" ry="9.21" transform="translate(-1.64 1.48) rotate(-0.32)"/><ellipse class="cls-12" cx="261.12" cy="291.56" rx="68.29" ry="9.17" transform="translate(-1.64 1.48) rotate(-0.32)"/><ellipse class="cls-13" cx="260.85" cy="291.56" rx="67.98" ry="9.13" transform="translate(-1.64 1.48) rotate(-0.32)"/><ellipse class="cls-13" cx="260.58" cy="291.56" rx="67.67" ry="9.08" transform="translate(-1.64 1.47) rotate(-0.32)"/><ellipse class="cls-13" cx="260.31" cy="291.56" rx="67.36" ry="9.04" transform="translate(-1.64 1.47) rotate(-0.32)"/><ellipse class="cls-14" cx="260.04" cy="291.56" rx="67.05" ry="9" transform="translate(-1.64 1.47) rotate(-0.32)"/><ellipse class="cls-14" cx="259.77" cy="291.56" rx="66.74" ry="8.96" transform="translate(-1.64 1.47) rotate(-0.32)"/><path class="cls-14" d="M325.93,291.19c0,4.93-29.69,9.09-66.38,9.29s-66.45-3.62-66.48-8.54,29.69-9.09,66.38-9.29S325.91,286.26,325.93,291.19Z"/><ellipse class="cls-15" cx="259.23" cy="291.57" rx="66.12" ry="8.88" transform="translate(-1.64 1.47) rotate(-0.32)"/><ellipse class="cls-15" cx="258.96" cy="291.57" rx="65.81" ry="8.84" transform="matrix(1, -0.01, 0.01, 1, -1.64, 1.47)"/><path class="cls-15" d="M324.2,291.2c0,4.86-29.28,9-65.46,9.16s-65.52-3.57-65.55-8.42,29.28-9,65.45-9.17S324.17,286.34,324.2,291.2Z"/><path class="cls-16" d="M323.62,291.2c0,4.84-29.14,8.92-65.15,9.12s-65.21-3.55-65.24-8.38,29.14-8.92,65.14-9.12S323.59,286.37,323.62,291.2Z"/><path class="cls-17" d="M323,291.2c0,4.82-29,8.88-64.84,9.08s-64.91-3.53-64.93-8.34,29-8.88,64.83-9.08S323,286.39,323,291.2Z"/><path class="cls-17" d="M322.46,291.21c0,4.79-28.86,8.83-64.53,9s-64.6-3.52-64.62-8.3,28.86-8.84,64.53-9S322.43,286.42,322.46,291.21Z"/><ellipse class="cls-18" cx="257.61" cy="291.57" rx="64.27" ry="8.63" transform="translate(-1.64 1.46) rotate(-0.32)"/><path class="cls-18" d="M321.3,291.21c0,4.75-28.58,8.75-63.91,9s-64-3.48-64-8.22S222,283.19,257.3,283,321.28,286.47,321.3,291.21Z"/><ellipse class="cls-18" cx="257.07" cy="291.58" rx="63.65" ry="8.55" transform="translate(-1.64 1.45) rotate(-0.32)"/><ellipse class="cls-19" cx="256.8" cy="291.58" rx="63.34" ry="8.5" transform="translate(-1.64 1.45) rotate(-0.32)"/><path class="cls-19" d="M319.57,291.22c0,4.68-28.18,8.63-63,8.82s-63-3.43-63.08-8.11,28.18-8.62,63-8.81S319.54,286.55,319.57,291.22Z"/><path class="cls-20" d="M319,291.23c0,4.65-28,8.58-62.68,8.77s-62.74-3.41-62.77-8.07,28-8.57,62.68-8.77S319,286.58,319,291.23Z"/><ellipse class="cls-20" cx="256" cy="291.58" rx="62.42" ry="8.38" transform="translate(-1.64 1.45) rotate(-0.32)"/><ellipse class="cls-20" cx="255.73" cy="291.58" rx="62.11" ry="8.34" transform="translate(-1.64 1.45) rotate(-0.32)"/><path class="cls-21" d="M317.25,291.24c0,4.58-27.62,8.45-61.75,8.64s-61.81-3.36-61.84-7.95,27.62-8.45,61.75-8.64S317.23,286.65,317.25,291.24Z"/><path class="cls-21" d="M316.67,291.24c0,4.56-27.48,8.41-61.44,8.6s-61.51-3.35-61.53-7.91,27.48-8.41,61.44-8.6S316.65,286.68,316.67,291.24Z"/><ellipse class="cls-22" cx="254.92" cy="291.59" rx="61.18" ry="8.21" transform="translate(-1.64 1.44) rotate(-0.32)"/><ellipse class="cls-22" cx="254.65" cy="291.59" rx="60.87" ry="8.17" transform="translate(-1.64 1.44) rotate(-0.32)"/><ellipse class="cls-23" cx="254.38" cy="291.59" rx="60.56" ry="8.13" transform="matrix(1, -0.01, 0.01, 1, -1.64, 1.44)"/><ellipse class="cls-23" cx="254.11" cy="291.59" rx="60.25" ry="8.09" transform="translate(-1.64 1.44) rotate(-0.32)"/><ellipse class="cls-24" cx="253.84" cy="291.59" rx="59.94" ry="8.05" transform="translate(-1.64 1.44) rotate(-0.32)"/><ellipse class="cls-24" cx="253.57" cy="291.59" rx="59.63" ry="8.01" transform="translate(-1.64 1.44) rotate(-0.32)"/><path class="cls-24" d="M312.62,291.26c0,4.4-26.51,8.12-59.28,8.3S194,296.33,194,291.93s26.52-8.11,59.28-8.3S312.6,286.86,312.62,291.26Z"/><path class="cls-25" d="M312,291.26c0,4.38-26.37,8.08-59,8.26s-59-3.21-59.06-7.59,26.38-8.07,59-8.26S312,286.89,312,291.26Z"/><ellipse class="cls-26" cx="252.76" cy="291.6" rx="58.71" ry="7.88" transform="translate(-1.64 1.43) rotate(-0.32)"/><path class="cls-26" d="M310.89,291.27c0,4.33-26.11,8-58.36,8.17s-58.42-3.18-58.44-7.51,26.1-8,58.35-8.17S310.86,286.94,310.89,291.27Z"/><path class="cls-27" d="M310.31,291.27c0,4.31-26,8-58.05,8.13s-58.11-3.16-58.13-7.47,26-7.95,58-8.13S310.28,287,310.31,291.27Z"/><path class="cls-27" d="M309.73,291.28c0,4.28-25.83,7.9-57.74,8.08s-57.8-3.15-57.82-7.43S220,284,251.9,283.85,309.7,287,309.73,291.28Z"/><path class="cls-28" d="M309.15,291.28c0,4.26-25.69,7.86-57.43,8s-57.49-3.13-57.51-7.39,25.68-7.86,57.43-8S309.13,287,309.15,291.28Z"/><ellipse class="cls-28" cx="251.41" cy="291.61" rx="57.16" ry="7.67" transform="translate(-1.64 1.42) rotate(-0.32)"/><ellipse class="cls-29" cx="251.14" cy="291.61" rx="56.85" ry="7.63" transform="translate(-1.64 1.42) rotate(-0.32)"/><path class="cls-29" d="M307.41,291.29c0,4.19-25.27,7.73-56.5,7.91s-56.56-3.08-56.58-7.27,25.27-7.74,56.5-7.91S307.39,287.1,307.41,291.29Z"/><ellipse class="cls-30" cx="250.6" cy="291.61" rx="56.24" ry="7.55" transform="translate(-1.64 1.42) rotate(-0.32)"/><ellipse class="cls-30" cx="250.33" cy="291.61" rx="55.93" ry="7.51" transform="translate(-1.64 1.42) rotate(-0.32)"/><path class="cls-31" d="M305.68,291.3c0,4.12-24.86,7.61-55.58,7.78s-55.63-3-55.66-7.15,24.86-7.61,55.58-7.78S305.65,287.17,305.68,291.3Z"/><path class="cls-31" d="M305.1,291.3c0,4.1-24.72,7.57-55.27,7.74s-55.32-3-55.35-7.11,24.72-7.57,55.27-7.74S305.08,287.2,305.1,291.3Z"/><ellipse class="cls-32" cx="249.52" cy="291.61" rx="55" ry="7.38" transform="translate(-1.64 1.41) rotate(-0.32)"/><ellipse class="cls-32" cx="249.25" cy="291.62" rx="54.69" ry="7.34" transform="translate(-1.64 1.41) rotate(-0.32)"/><path class="cls-33" d="M303.36,291.31c0,4-24.3,7.44-54.34,7.61s-54.4-3-54.42-7,24.31-7.43,54.34-7.6S303.34,287.28,303.36,291.31Z"/><path class="cls-33" d="M302.78,291.31c0,4-24.16,7.4-54,7.57s-54.09-2.95-54.11-7,24.17-7.39,54-7.56S302.76,287.3,302.78,291.31Z"/><ellipse class="cls-34" cx="248.44" cy="291.62" rx="53.76" ry="7.22" transform="translate(-1.64 1.41) rotate(-0.32)"/><path class="cls-35" d="M301.63,291.32c0,4-23.9,7.31-53.42,7.48s-53.47-2.91-53.49-6.88,23.89-7.31,53.41-7.47S301.6,287.36,301.63,291.32Z"/><path class="cls-35" d="M301.05,291.32c0,3.94-23.76,7.27-53.11,7.44s-53.16-2.9-53.18-6.84,23.75-7.27,53.1-7.43S301,287.38,301.05,291.32Z"/><ellipse class="cls-36" cx="247.63" cy="291.62" rx="52.84" ry="7.09" transform="translate(-1.64 1.4) rotate(-0.32)"/><ellipse class="cls-37" cx="247.36" cy="291.63" rx="52.53" ry="7.05" transform="translate(-1.64 1.4) rotate(-0.32)"/><ellipse class="cls-37" cx="247.09" cy="291.63" rx="52.22" ry="7.01" transform="translate(-1.64 1.4) rotate(-0.32)"/><ellipse class="cls-38" cx="246.82" cy="291.63" rx="51.91" ry="6.97" transform="translate(-1.64 1.4) rotate(-0.32)"/><path class="cls-38" d="M298.15,291.34c0,3.82-23.06,7.06-51.56,7.22S195,295.75,195,291.92s23.07-7.06,51.56-7.22S298.13,287.51,298.15,291.34Z"/><ellipse class="cls-39" cx="246.28" cy="291.63" rx="51.29" ry="6.89" transform="translate(-1.64 1.39) rotate(-0.32)"/><path class="cls-39" d="M297,291.35c0,3.78-22.79,7-50.95,7.13s-51-2.78-51-6.56,22.79-7,50.94-7.13S297,287.57,297,291.35Z"/><ellipse class="cls-40" cx="245.74" cy="291.63" rx="50.67" ry="6.8" transform="translate(-1.64 1.39) rotate(-0.32)"/><ellipse class="cls-40" cx="245.47" cy="291.64" rx="50.37" ry="6.76" transform="translate(-1.64 1.39) rotate(-0.32)"/><ellipse class="cls-41" cx="245.2" cy="291.64" rx="50.06" ry="6.72" transform="translate(-1.64 1.39) rotate(-0.32)"/><ellipse class="cls-42" cx="244.93" cy="291.64" rx="49.75" ry="6.68" transform="translate(-1.64 1.39) rotate(-0.32)"/><path class="cls-43" d="M294.1,291.36c0,3.67-22.1,6.76-49.4,6.92s-49.45-2.7-49.47-6.36,22.09-6.76,49.4-6.92S294.08,287.7,294.1,291.36Z"/><path class="cls-43" d="M293.52,291.36c0,3.65-22,6.72-49.09,6.88s-49.14-2.68-49.16-6.32,21.95-6.72,49.09-6.87S293.5,287.72,293.52,291.36Z"/><ellipse class="cls-44" cx="244.12" cy="291.64" rx="48.82" ry="6.55" transform="translate(-1.64 1.38) rotate(-0.32)"/><ellipse class="cls-45" cx="243.85" cy="291.64" rx="48.51" ry="6.51" transform="translate(-1.64 1.38) rotate(-0.32)"/><path class="cls-45" d="M291.79,291.37c0,3.58-21.55,6.6-48.17,6.75s-48.22-2.63-48.24-6.2,21.55-6.6,48.17-6.75S291.77,287.8,291.79,291.37Z"/><path class="cls-46" d="M291.21,291.38c0,3.55-21.41,6.55-47.86,6.7s-47.91-2.61-47.93-6.16,21.41-6.55,47.86-6.7S291.19,287.83,291.21,291.38Z"/><ellipse class="cls-46" cx="243.05" cy="291.65" rx="47.58" ry="6.39" transform="translate(-1.64 1.38) rotate(-0.32)"/><path class="cls-47" d="M290.05,291.38c0,3.51-21.13,6.47-47.24,6.62s-47.29-2.58-47.31-6.08,21.13-6.47,47.24-6.62S290,287.88,290.05,291.38Z"/><path class="cls-47" d="M289.47,291.39c0,3.48-21,6.42-46.93,6.57s-47-2.56-47-6,21-6.43,46.93-6.57S289.45,287.9,289.47,291.39Z"/><ellipse class="cls-48" cx="242.24" cy="291.65" rx="46.66" ry="6.26" transform="matrix(1, -0.01, 0.01, 1, -1.64, 1.37)"/><ellipse class="cls-49" cx="241.97" cy="291.65" rx="46.35" ry="6.22" transform="translate(-1.64 1.37) rotate(-0.32)"/><path class="cls-50" d="M287.73,291.39c0,3.42-20.57,6.3-46,6.45s-46-2.51-46.07-5.93,20.58-6.29,46-6.44S287.72,288,287.73,291.39Z"/><ellipse class="cls-50" cx="241.43" cy="291.66" rx="45.73" ry="6.14" transform="translate(-1.64 1.37) rotate(-0.32)"/><path class="cls-51" d="M286.58,291.4c0,3.37-20.3,6.21-45.39,6.36s-45.43-2.48-45.45-5.85,20.3-6.21,45.38-6.35S286.56,288,286.58,291.4Z"/><ellipse class="cls-52" cx="240.89" cy="291.66" rx="45.11" ry="6.06" transform="translate(-1.64 1.36) rotate(-0.32)"/><path class="cls-53" d="M285.42,291.41c0,3.32-20,6.13-44.77,6.27s-44.82-2.45-44.84-5.77,20-6.12,44.77-6.26S285.4,288.09,285.42,291.41Z"/><path class="cls-53" d="M284.84,291.41c0,3.3-19.89,6.09-44.46,6.22s-44.51-2.42-44.53-5.72,19.89-6.08,44.46-6.22S284.82,288.11,284.84,291.41Z"/><ellipse class="cls-54" cx="240.08" cy="291.66" rx="44.19" ry="5.93" transform="translate(-1.64 1.36) rotate(-0.32)"/><ellipse class="cls-54" cx="239.81" cy="291.66" rx="43.88" ry="5.89" transform="translate(-1.64 1.36) rotate(-0.32)"/><path class="cls-55" d="M283.1,291.42c0,3.23-19.47,6-43.53,6.09s-43.58-2.37-43.6-5.6,19.47-6,43.53-6.09S283.09,288.19,283.1,291.42Z"/><path class="cls-56" d="M282.53,291.42c0,3.21-19.34,5.92-43.23,6.05S196,295.12,196,291.91s19.33-5.92,43.23-6.05S282.51,288.22,282.53,291.42Z"/><ellipse class="cls-56" cx="239" cy="291.67" rx="42.95" ry="5.77" transform="translate(-1.64 1.35) rotate(-0.32)"/><path class="cls-57" d="M281.37,291.43c0,3.16-19.06,5.83-42.61,6s-42.65-2.32-42.67-5.48,19.06-5.83,42.61-6S281.35,288.27,281.37,291.43Z"/><ellipse class="cls-58" cx="238.46" cy="291.67" rx="42.33" ry="5.68" transform="translate(-1.64 1.35) rotate(-0.32)"/><path class="cls-59" d="M280.21,291.44c0,3.11-18.78,5.74-42,5.87s-42-2.28-42.05-5.4,18.78-5.75,42-5.88S280.19,288.32,280.21,291.44Z"/><path class="cls-59" d="M279.63,291.44c0,3.09-18.64,5.7-41.68,5.83s-41.73-2.27-41.74-5.36,18.64-5.71,41.68-5.84S279.61,288.35,279.63,291.44Z"/><path class="cls-60" d="M279.05,291.44c0,3.07-18.5,5.66-41.37,5.79s-41.42-2.25-41.43-5.32,18.5-5.66,41.37-5.79S279,288.37,279.05,291.44Z"/><path class="cls-61" d="M278.47,291.44c0,3.05-18.36,5.63-41.06,5.75s-41.11-2.23-41.13-5.28,18.37-5.62,41.07-5.75S278.46,288.4,278.47,291.44Z"/><path class="cls-62" d="M277.9,291.45c0,3-18.23,5.58-40.76,5.7s-40.8-2.22-40.82-5.24,18.23-5.58,40.76-5.71S277.88,288.42,277.9,291.45Z"/><path class="cls-62" d="M277.32,291.45c0,3-18.09,5.54-40.45,5.66s-40.49-2.2-40.51-5.2,18.09-5.54,40.45-5.66S277.3,288.45,277.32,291.45Z"/><ellipse class="cls-63" cx="236.57" cy="291.68" rx="40.17" ry="5.39" transform="translate(-1.64 1.34) rotate(-0.32)"/><path class="cls-63" d="M276.16,291.46c0,3-17.82,5.45-39.83,5.57s-39.87-2.17-39.89-5.12,17.82-5.45,39.83-5.58S276.14,288.5,276.16,291.46Z"/><path class="cls-64" d="M275.58,291.46c0,2.93-17.68,5.41-39.52,5.53s-39.56-2.15-39.58-5.08,17.68-5.41,39.52-5.54S275.56,288.53,275.58,291.46Z"/><path class="cls-65" d="M275,291.46c0,2.91-17.54,5.37-39.21,5.49s-39.25-2.13-39.27-5,17.54-5.37,39.21-5.49S275,288.55,275,291.46Z"/><ellipse class="cls-65" cx="235.49" cy="291.69" rx="38.93" ry="5.23" transform="translate(-1.64 1.33) rotate(-0.32)"/><path class="cls-66" d="M273.84,291.47c0,2.86-17.26,5.28-38.59,5.4s-38.64-2.1-38.65-5,17.26-5.29,38.59-5.41S273.83,288.61,273.84,291.47Z"/><path class="cls-67" d="M273.27,291.47c0,2.84-17.13,5.24-38.29,5.36s-38.33-2.08-38.34-4.92,17.12-5.25,38.28-5.36S273.25,288.63,273.27,291.47Z"/><path class="cls-68" d="M272.69,291.48c0,2.81-17,5.19-38,5.31s-38-2.07-38-4.89,17-5.19,38-5.31S272.67,288.66,272.69,291.48Z"/><path class="cls-69" d="M272.11,291.48c0,2.79-16.85,5.16-37.67,5.27s-37.71-2.05-37.72-4.85,16.84-5.15,37.66-5.27S272.09,288.68,272.11,291.48Z"/><path class="cls-70" d="M271.53,291.48c0,2.77-16.71,5.12-37.36,5.23s-37.4-2-37.41-4.81,16.71-5.11,37.35-5.23S271.51,288.71,271.53,291.48Z"/><path class="cls-70" d="M271,291.49c0,2.74-16.57,5.07-37,5.18s-37.09-2-37.11-4.77,16.58-5.07,37.05-5.18S270.93,288.74,271,291.49Z"/><ellipse class="cls-71" cx="233.6" cy="291.7" rx="36.77" ry="4.94" transform="translate(-1.64 1.32) rotate(-0.32)"/><path class="cls-72" d="M269.79,291.49c0,2.7-16.29,5-36.43,5.1s-36.47-2-36.49-4.69,16.3-5,36.44-5.1S269.78,288.79,269.79,291.49Z"/><path class="cls-72" d="M269.21,291.49c0,2.69-16.15,4.95-36.12,5.06s-36.16-2-36.18-4.65,16.16-4.94,36.13-5S269.2,288.81,269.21,291.49Z"/><path class="cls-73" d="M268.64,291.5c0,2.66-16,4.9-35.82,5S197,294.56,197,291.9s16-4.9,35.82-5S268.62,288.84,268.64,291.5Z"/><path class="cls-74" d="M268.06,291.5c0,2.64-15.89,4.86-35.51,5S197,294.54,197,291.9s15.88-4.86,35.51-5S268,288.87,268.06,291.5Z"/><ellipse class="cls-75" cx="232.25" cy="291.7" rx="35.22" ry="4.73" transform="translate(-1.64 1.31) rotate(-0.32)"/><path class="cls-76" d="M266.9,291.51c0,2.59-15.61,4.77-34.89,4.88s-34.93-1.9-34.94-4.49,15.6-4.77,34.89-4.88S266.88,288.92,266.9,291.51Z"/><path class="cls-77" d="M266.32,291.51c0,2.57-15.47,4.73-34.58,4.84s-34.62-1.88-34.63-4.45,15.47-4.73,34.58-4.84S266.31,288.94,266.32,291.51Z"/><path class="cls-78" d="M265.74,291.51c0,2.55-15.33,4.69-34.27,4.8s-34.31-1.87-34.32-4.41,15.33-4.69,34.27-4.8S265.73,289,265.74,291.51Z"/><ellipse class="cls-78" cx="231.17" cy="291.71" rx="33.99" ry="4.56" transform="translate(-1.64 1.31) rotate(-0.32)"/><path class="cls-79" d="M264.58,291.52c0,2.5-15,4.61-33.65,4.71s-33.69-1.83-33.7-4.33,15.05-4.61,33.65-4.71S264.57,289,264.58,291.52Z"/><path class="cls-80" d="M264,291.52c0,2.48-14.91,4.57-33.34,4.67s-33.38-1.82-33.4-4.29,14.92-4.57,33.35-4.67S264,289.05,264,291.52Z"/><path class="cls-80" d="M263.43,291.53c0,2.45-14.78,4.52-33,4.62s-33.07-1.8-33.09-4.25,14.78-4.52,33-4.63S263.41,289.07,263.43,291.53Z"/><path class="cls-81" d="M262.85,291.53c0,2.43-14.64,4.48-32.73,4.58s-32.76-1.78-32.78-4.21,14.64-4.48,32.73-4.58S262.83,289.1,262.85,291.53Z"/><path class="cls-82" d="M262.27,291.53c0,2.41-14.5,4.44-32.42,4.54s-32.45-1.77-32.47-4.17,14.5-4.44,32.42-4.54S262.25,289.13,262.27,291.53Z"/><path class="cls-83" d="M261.69,291.54c0,2.38-14.36,4.39-32.11,4.49s-32.15-1.75-32.16-4.13,14.36-4.4,32.11-4.5S261.68,289.15,261.69,291.54Z"/><path class="cls-84" d="M261.11,291.54c0,2.36-14.22,4.35-31.8,4.45s-31.84-1.73-31.85-4.09,14.22-4.36,31.8-4.45S261.1,289.18,261.11,291.54Z"/><path class="cls-85" d="M260.53,291.54c0,2.34-14.08,4.31-31.49,4.41s-31.53-1.72-31.54-4.05,14.09-4.31,31.49-4.41S260.52,289.2,260.53,291.54Z"/><path class="cls-86" d="M260,291.54c0,2.32-13.94,4.27-31.18,4.37s-31.22-1.7-31.23-4,14-4.27,31.18-4.37S259.94,289.23,260,291.54Z"/><path class="cls-86" d="M259.37,291.55c0,2.29-13.81,4.22-30.87,4.32s-30.91-1.68-30.92-4,13.81-4.23,30.87-4.33S259.36,289.26,259.37,291.55Z"/><ellipse class="cls-87" cx="228.21" cy="291.72" rx="30.59" ry="4.11" transform="translate(-1.64 1.29) rotate(-0.32)"/><path class="cls-88" d="M258.22,291.55c0,2.25-13.54,4.15-30.26,4.24s-30.29-1.65-30.3-3.89,13.53-4.15,30.25-4.24S258.2,289.31,258.22,291.55Z"/><ellipse class="cls-89" cx="227.67" cy="291.73" rx="29.97" ry="4.02" transform="translate(-1.64 1.29) rotate(-0.32)"/><path class="cls-90" d="M257.06,291.56c0,2.2-13.26,4.06-29.64,4.15s-29.67-1.62-29.69-3.82,13.26-4.05,29.64-4.14S257.05,289.36,257.06,291.56Z"/><path class="cls-90" d="M256.48,291.56c0,2.18-13.12,4-29.33,4.11s-29.36-1.6-29.38-3.78,13.12-4,29.34-4.1S256.47,289.39,256.48,291.56Z"/><path class="cls-91" d="M255.9,291.57c0,2.15-13,4-29,4.06s-29-1.58-29.07-3.74,13-4,29-4.06S255.89,289.41,255.9,291.57Z"/><path class="cls-92" d="M255.32,291.57c0,2.13-12.84,3.93-28.71,4s-28.75-1.57-28.76-3.7,12.85-3.93,28.72-4S255.31,289.44,255.32,291.57Z"/><path class="cls-93" d="M254.74,291.57c0,2.11-12.7,3.89-28.4,4s-28.44-1.55-28.45-3.66,12.71-3.88,28.41-4S254.73,289.46,254.74,291.57Z"/><path class="cls-94" d="M254.17,291.58c0,2.08-12.57,3.84-28.1,3.93s-28.13-1.53-28.14-3.62S210.5,288.05,226,288,254.15,289.49,254.17,291.58Z"/><path class="cls-95" d="M253.59,291.58c0,2.06-12.43,3.8-27.79,3.89S198,294,198,291.89s12.43-3.8,27.79-3.89S253.58,289.52,253.59,291.58Z"/><path class="cls-96" d="M253,291.58c0,2-12.29,3.76-27.48,3.85S198,293.93,198,291.89s12.29-3.76,27.48-3.84S253,289.54,253,291.58Z"/><path class="cls-96" d="M252.43,291.59c0,2-12.15,3.71-27.17,3.8s-27.2-1.48-27.21-3.5,12.15-3.72,27.17-3.8S252.42,289.57,252.43,291.59Z"/><path class="cls-97" d="M251.85,291.59c0,2-12,3.68-26.86,3.76s-26.89-1.47-26.9-3.46,12-3.68,26.86-3.76S251.84,289.6,251.85,291.59Z"/><ellipse class="cls-98" cx="224.7" cy="291.74" rx="26.57" ry="3.57" transform="translate(-1.64 1.27) rotate(-0.32)"/><path class="cls-99" d="M250.69,291.59c0,2-11.74,3.6-26.24,3.68s-26.27-1.43-26.28-3.38,11.73-3.59,26.24-3.67S250.68,289.65,250.69,291.59Z"/><path class="cls-100" d="M250.11,291.6c0,1.92-11.6,3.55-25.93,3.63s-26-1.42-26-3.34,11.61-3.55,25.94-3.63S250.1,289.67,250.11,291.6Z"/><ellipse class="cls-101" cx="223.89" cy="291.75" rx="25.65" ry="3.44" transform="translate(-1.64 1.27) rotate(-0.32)"/><path class="cls-102" d="M249,291.6c0,1.88-11.33,3.47-25.32,3.55s-25.35-1.38-25.36-3.26,11.33-3.47,25.32-3.54S249,289.73,249,291.6Z"/><path class="cls-103" d="M248.38,291.61c0,1.85-11.19,3.42-25,3.5s-25-1.37-25.05-3.22,11.19-3.42,25-3.5S248.37,289.75,248.38,291.61Z"/><path class="cls-104" d="M247.8,291.61c0,1.83-11.05,3.38-24.7,3.46s-24.73-1.35-24.74-3.18,11-3.38,24.7-3.46S247.79,289.78,247.8,291.61Z"/><path class="cls-104" d="M247.22,291.61c0,1.81-10.91,3.34-24.39,3.42s-24.42-1.33-24.43-3.14,10.91-3.34,24.39-3.42S247.21,289.8,247.22,291.61Z"/><path class="cls-105" d="M246.64,291.62c0,1.78-10.77,3.29-24.08,3.37s-24.11-1.31-24.12-3.1,10.77-3.3,24.08-3.37S246.63,289.83,246.64,291.62Z"/><ellipse class="cls-106" cx="222.27" cy="291.75" rx="23.79" ry="3.19" transform="translate(-1.64 1.26) rotate(-0.32)"/><path class="cls-107" d="M245.48,291.62c0,1.74-10.49,3.21-23.46,3.29s-23.49-1.28-23.5-3S209,288.68,222,288.6,245.47,289.88,245.48,291.62Z"/><path class="cls-108" d="M244.91,291.63c0,1.71-10.36,3.17-23.16,3.24s-23.18-1.26-23.19-3,10.36-3.17,23.15-3.24S244.9,289.91,244.91,291.63Z"/><path class="cls-109" d="M244.33,291.63c0,1.69-10.22,3.13-22.85,3.2s-22.87-1.25-22.88-2.94,10.22-3.13,22.84-3.2S244.32,289.93,244.33,291.63Z"/><path class="cls-110" d="M243.75,291.63c0,1.67-10.08,3.09-22.54,3.16s-22.56-1.23-22.57-2.9,10.08-3.09,22.53-3.16S243.74,290,243.75,291.63Z"/><path class="cls-111" d="M243.17,291.63c0,1.65-9.94,3.05-22.23,3.12s-22.26-1.21-22.26-2.86,9.94-3.05,22.23-3.12S243.16,290,243.17,291.63Z"/><path class="cls-112" d="M242.59,291.64c0,1.62-9.81,3-21.92,3.07s-21.95-1.2-22-2.82,9.81-3,21.93-3.07S242.58,290,242.59,291.64Z"/><path class="cls-112" d="M242,291.64c0,1.6-9.67,3-21.61,3s-21.64-1.18-21.65-2.78,9.67-3,21.62-3S242,290,242,291.64Z"/><path class="cls-113" d="M241.43,291.64c0,1.58-9.53,2.92-21.3,3s-21.33-1.16-21.34-2.75,9.53-2.91,21.31-3S241.42,290.06,241.43,291.64Z"/><path class="cls-114" d="M240.85,291.65c0,1.56-9.39,2.87-21,2.94s-21-1.15-21-2.71,9.39-2.87,21-2.93S240.84,290.09,240.85,291.65Z"/><path class="cls-115" d="M240.27,291.65c0,1.54-9.25,2.83-20.68,2.9s-20.71-1.13-20.72-2.67,9.25-2.83,20.69-2.89S240.27,290.12,240.27,291.65Z"/><ellipse class="cls-116" cx="219.3" cy="291.77" rx="20.39" ry="2.74" transform="translate(-1.64 1.24) rotate(-0.32)"/><path class="cls-117" d="M239.12,291.66c0,1.49-9,2.74-20.07,2.81s-20.09-1.1-20.1-2.59,9-2.74,20.07-2.81S239.11,290.17,239.12,291.66Z"/><path class="cls-118" d="M238.54,291.66c0,1.47-8.84,2.7-19.76,2.77S199,293.35,199,291.88s8.84-2.7,19.76-2.76S238.53,290.19,238.54,291.66Z"/><path class="cls-119" d="M238,291.66c0,1.45-8.7,2.67-19.45,2.73S199,293.33,199,291.88s8.7-2.66,19.45-2.72S238,290.22,238,291.66Z"/><path class="cls-120" d="M237.38,291.67c0,1.42-8.56,2.62-19.14,2.68s-19.16-1.05-19.17-2.47,8.56-2.62,19.14-2.68S237.37,290.25,237.38,291.67Z"/><path class="cls-121" d="M236.8,291.67c0,1.4-8.42,2.58-18.83,2.64s-18.86-1-18.86-2.43,8.42-2.58,18.83-2.63S236.79,290.27,236.8,291.67Z"/><path class="cls-122" d="M236.22,291.67c0,1.38-8.28,2.54-18.52,2.6s-18.55-1-18.55-2.39,8.28-2.53,18.52-2.59S236.22,290.3,236.22,291.67Z"/><ellipse class="cls-123" cx="217.41" cy="291.78" rx="18.23" ry="2.45" transform="translate(-1.64 1.23) rotate(-0.32)"/><path class="cls-124" d="M235.07,291.68c0,1.33-8,2.45-17.91,2.51s-17.93-1-17.94-2.31,8-2.45,17.91-2.51S235.06,290.35,235.07,291.68Z"/><path class="cls-125" d="M234.49,291.68c0,1.31-7.87,2.41-17.6,2.47s-17.62-1-17.63-2.27,7.87-2.41,17.6-2.46S234.48,290.38,234.49,291.68Z"/><path class="cls-126" d="M233.91,291.68c0,1.29-7.74,2.37-17.29,2.43s-17.31-.95-17.32-2.23,7.74-2.37,17.29-2.42S233.9,290.4,233.91,291.68Z"/><path class="cls-127" d="M233.33,291.69c0,1.26-7.6,2.32-17,2.38s-17-.93-17-2.19,7.6-2.32,17-2.38S233.32,290.43,233.33,291.69Z"/><path class="cls-128" d="M232.75,291.69c0,1.24-7.46,2.28-16.67,2.34s-16.69-.91-16.7-2.15,7.46-2.28,16.67-2.33S232.74,290.45,232.75,291.69Z"/><path class="cls-129" d="M232.17,291.69c0,1.22-7.32,2.24-16.36,2.29s-16.38-.89-16.39-2.1,7.32-2.24,16.36-2.29S232.17,290.48,232.17,291.69Z"/><path class="cls-129" d="M231.59,291.7c0,1.19-7.18,2.19-16.05,2.24s-16.07-.87-16.08-2.06,7.18-2.2,16-2.25S231.59,290.51,231.59,291.7Z"/><path class="cls-130" d="M231,291.7c0,1.17-7,2.16-15.74,2.2s-15.77-.85-15.77-2,7-2.16,15.74-2.21S231,290.53,231,291.7Z"/><path class="cls-131" d="M230.44,291.7c0,1.15-6.91,2.12-15.44,2.16s-15.46-.84-15.46-2,6.9-2.12,15.43-2.16S230.43,290.56,230.44,291.7Z"/><path class="cls-132" d="M229.86,291.71c0,1.12-6.77,2.07-15.13,2.11s-15.15-.82-15.15-1.94,6.76-2.07,15.13-2.12S229.85,290.58,229.86,291.71Z"/><ellipse class="cls-133" cx="214.45" cy="291.79" rx="14.83" ry="1.99" transform="translate(-1.64 1.21) rotate(-0.32)"/><path class="cls-134" d="M228.7,291.71c0,1.08-6.49,2-14.51,2s-14.53-.79-14.54-1.86,6.5-2,14.52-2S228.69,290.64,228.7,291.71Z"/><path class="cls-135" d="M228.12,291.72c0,1-6.35,1.94-14.2,2s-14.22-.77-14.23-1.82,6.36-1.95,14.21-2S228.11,290.66,228.12,291.72Z"/><path class="cls-135" d="M227.54,291.72c0,1-6.21,1.9-13.89,1.94s-13.91-.75-13.92-1.78,6.22-1.91,13.9-1.95S227.54,290.69,227.54,291.72Z"/><path class="cls-136" d="M227,291.72c0,1-6.07,1.86-13.58,1.9s-13.6-.74-13.61-1.74,6.08-1.86,13.59-1.91S227,290.71,227,291.72Z"/><path class="cls-137" d="M226.38,291.73c0,1-5.93,1.81-13.27,1.85s-13.29-.72-13.3-1.7,5.94-1.82,13.28-1.86S226.38,290.74,226.38,291.73Z"/><path class="cls-138" d="M225.81,291.73c0,1-5.8,1.77-13,1.81s-13-.7-13-1.67,5.8-1.77,13-1.81S225.8,290.77,225.81,291.73Z"/><path class="cls-139" d="M225.23,291.73c0,.94-5.67,1.73-12.66,1.77s-12.67-.69-12.68-1.63,5.66-1.73,12.66-1.77S225.22,290.79,225.23,291.73Z"/><path class="cls-140" d="M224.65,291.73c0,.92-5.53,1.7-12.35,1.73s-12.37-.67-12.37-1.59,5.52-1.69,12.35-1.72S224.64,290.82,224.65,291.73Z"/><ellipse class="cls-140" cx="212.02" cy="291.81" rx="12.05" ry="1.62" transform="translate(-1.64 1.2) rotate(-0.32)"/><path class="cls-141" d="M223.49,291.74c0,.87-5.25,1.61-11.73,1.64S200,292.74,200,291.87s5.25-1.6,11.73-1.64S223.49,290.87,223.49,291.74Z"/><ellipse class="cls-142" cx="211.48" cy="291.81" rx="11.43" ry="1.53" transform="matrix(1, -0.01, 0.01, 1, -1.64, 1.2)"/><ellipse class="cls-142" cx="211.21" cy="291.81" rx="11.12" ry="1.49" transform="translate(-1.64 1.2) rotate(-0.32)"/><path class="cls-143" d="M221.75,291.75c0,.8-4.83,1.48-10.8,1.51s-10.82-.59-10.82-1.39,4.83-1.48,10.8-1.51S221.75,291,221.75,291.75Z"/><path class="cls-144" d="M221.18,291.75c0,.78-4.7,1.44-10.5,1.47s-10.51-.57-10.52-1.35,4.7-1.44,10.5-1.47S221.17,291,221.18,291.75Z"/><path class="cls-144" d="M220.6,291.76c0,.75-4.56,1.39-10.19,1.42s-10.2-.55-10.21-1.31,4.56-1.39,10.19-1.42S220.59,291,220.6,291.76Z"/><path class="cls-145" d="M220,291.76c0,.73-4.42,1.35-9.88,1.38s-9.89-.54-9.9-1.27,4.42-1.35,9.88-1.38S220,291,220,291.76Z"/><path class="cls-146" d="M219.44,291.76c0,.71-4.28,1.31-9.57,1.34s-9.58-.52-9.59-1.23,4.28-1.31,9.57-1.34S219.43,291.05,219.44,291.76Z"/><path class="cls-147" d="M218.86,291.77c0,.68-4.14,1.26-9.26,1.29s-9.28-.5-9.28-1.19,4.14-1.27,9.26-1.3S218.86,291.08,218.86,291.77Z"/><path class="cls-148" d="M218.28,291.77c0,.66-4,1.22-8.95,1.25s-9-.49-9-1.15,4-1.23,8.95-1.25S218.28,291.1,218.28,291.77Z"/><ellipse class="cls-149" cx="209.05" cy="291.82" rx="8.65" ry="1.16" transform="translate(-1.64 1.18) rotate(-0.32)"/><path class="cls-150" d="M217.12,291.78c0,.61-3.73,1.14-8.33,1.16s-8.35-.45-8.35-1.07,3.73-1.14,8.33-1.17S217.12,291.16,217.12,291.78Z"/><path class="cls-150" d="M216.54,291.78c0,.59-3.59,1.1-8,1.12s-8-.44-8-1,3.59-1.1,8-1.13S216.54,291.18,216.54,291.78Z"/><path class="cls-151" d="M216,291.78c0,.57-3.46,1.06-7.72,1.08s-7.73-.42-7.73-1,3.45-1.06,7.72-1.08S216,291.21,216,291.78Z"/><path class="cls-152" d="M215.39,291.78c0,.55-3.32,1-7.41,1s-7.42-.4-7.42-.95,3.31-1,7.41-1S215.38,291.23,215.39,291.78Z"/><path class="cls-153" d="M214.81,291.79c0,.52-3.18,1-7.1,1s-7.11-.39-7.11-.91,3.17-1,7.1-1S214.81,291.26,214.81,291.79Z"/><path class="cls-154" d="M214.23,291.79c0,.5-3,.93-6.79.95s-6.8-.37-6.81-.87,3-.93,6.8-.95S214.23,291.29,214.23,291.79Z"/><path class="cls-155" d="M213.65,291.79c0,.48-2.9.89-6.48.91s-6.49-.35-6.5-.83,2.9-.89,6.49-.91S213.65,291.31,213.65,291.79Z"/><path class="cls-156" d="M213.07,291.8c0,.46-2.76.84-6.17.86s-6.18-.34-6.19-.79,2.77-.85,6.18-.87S213.07,291.34,213.07,291.8Z"/><path class="cls-157" d="M212.49,291.8c0,.44-2.62.8-5.86.82s-5.88-.32-5.88-.75,2.63-.81,5.87-.83S212.49,291.36,212.49,291.8Z"/><path class="cls-158" d="M211.91,291.8c0,.42-2.48.76-5.55.78s-5.57-.3-5.57-.71,2.49-.76,5.56-.78S211.91,291.39,211.91,291.8Z"/><path class="cls-159" d="M211.34,291.81c0,.39-2.35.71-5.25.73s-5.26-.28-5.26-.67,2.35-.72,5.25-.74S211.33,291.42,211.34,291.81Z"/><path class="cls-160" d="M210.76,291.81c0,.37-2.21.68-4.94.69s-4.95-.27-4.95-.63,2.21-.68,4.94-.7S210.76,291.44,210.76,291.81Z"/><path class="cls-161" d="M210.18,291.81c0,.35-2.07.64-4.63.65s-4.64-.25-4.64-.6,2.07-.63,4.63-.64S210.18,291.47,210.18,291.81Z"/><path class="cls-162" d="M209.6,291.82c0,.32-1.93.59-4.32.6s-4.33-.23-4.33-.56,1.93-.59,4.32-.6S209.6,291.49,209.6,291.82Z"/><path class="cls-163" d="M209,291.82c0,.3-1.79.55-4,.56s-4-.22-4-.52,1.79-.55,4-.56S209,291.52,209,291.82Z"/><path class="cls-163" d="M208.44,291.82c0,.28-1.66.51-3.7.52s-3.71-.2-3.71-.48,1.65-.5,3.7-.51S208.44,291.55,208.44,291.82Z"/><path class="cls-164" d="M207.86,291.82c0,.26-1.52.47-3.39.48s-3.4-.18-3.4-.44,1.51-.46,3.39-.47S207.86,291.57,207.86,291.82Z"/><path class="cls-165" d="M207.28,291.83c0,.23-1.38.42-3.08.43s-3.09-.17-3.1-.4,1.39-.42,3.09-.43S207.28,291.6,207.28,291.83Z"/><path class="cls-166" d="M206.71,291.83c0,.21-1.25.38-2.78.39s-2.78-.15-2.79-.36,1.25-.38,2.78-.39S206.7,291.63,206.71,291.83Z"/><path class="cls-167" d="M206.13,291.83c0,.19-1.11.34-2.47.35s-2.48-.13-2.48-.32,1.11-.34,2.47-.34S206.13,291.65,206.13,291.83Z"/><path class="cls-168" d="M205.55,291.84c0,.16-1,.29-2.16.3s-2.17-.12-2.17-.28,1-.29,2.16-.3S205.55,291.68,205.55,291.84Z"/><path class="cls-169" d="M205,291.84c0,.14-.83.25-1.85.26s-1.86-.1-1.86-.24.83-.25,1.85-.26S205,291.7,205,291.84Z"/><path class="cls-170" d="M204.39,291.84c0,.12-.69.21-1.54.22s-1.55-.08-1.55-.2.69-.21,1.54-.22S204.39,291.73,204.39,291.84Z"/><path class="cls-171" d="M203.81,291.85c0,.09-.55.17-1.23.17s-1.24-.07-1.24-.16.55-.17,1.23-.17S203.81,291.76,203.81,291.85Z"/><path class="cls-172" d="M203.23,291.85c0,.07-.41.13-.92.13s-.93-.05-.93-.12.41-.13.93-.13S203.23,291.78,203.23,291.85Z"/><path class="cls-173" d="M202.65,291.85s-.27.09-.61.09-.62,0-.62-.08.27-.08.62-.09A1.28,1.28,0,0,1,202.65,291.85Z"/><path class="cls-174" d="M202.08,291.86a1.22,1.22,0,1,1-.31,0C201.94,291.82,202.08,291.83,202.08,291.86Z"/></g></g><g class="cls-175"><polygon class="cls-176" points="171.52 191.84 161.35 186.12 156.3 187.54 166.48 193.25 171.52 191.84"/><polygon class="cls-177" points="169.08 160.09 170.56 165.35 180.73 171.06 179.25 165.81 169.08 160.09"/><polygon class="cls-178" points="115.58 164.67 125.75 170.38 124.33 165.34 114.16 159.63 115.58 164.67"/><polygon class="cls-179" points="172.38 171.84 175.29 182.21 167.84 184.3 178.02 190.01 185.47 187.92 182.56 177.56 172.38 171.84"/><polygon class="cls-180" points="122.51 158.85 120.42 151.4 154.28 141.88 144.11 136.17 110.24 145.69 112.34 153.13 122.51 158.85"/><polygon class="cls-181" points="146.43 190.31 132.45 194.24 128.52 180.26 118.35 174.54 126.74 204.41 156.61 196.02 146.43 190.31"/><polygon class="cls-182" points="150.6 134.35 160.78 140.06 163.96 141.84 174.13 147.56 168.97 129.19 150.6 134.35"/><polygon class="cls-183" points="165.78 148.34 167.26 153.6 177.43 159.31 175.95 154.05 165.78 148.34"/></g><path class="cls-184" d="M415.59,147.66h0l0-.1,0-.08,0-.08a4.47,4.47,0,0,0-1.78-2.19l-.22-.13h0l-26.41-15.25-26.42-15.26h0l-.21-.12a2.16,2.16,0,0,0-2.19-.1l-.05,0-.05,0-3.49,2,2,.86-7,37a5.15,5.15,0,0,0,.38,2.95l0,.08,0,.08a4.53,4.53,0,0,0,1.79,2.19L404.61,190l-.49,2.32,3.31-1.92.05,0a2.75,2.75,0,0,0,1.31-2l7.14-37.87A5.22,5.22,0,0,0,415.59,147.66Z"/><path class="cls-185" d="M401.76,192.29,348.5,161.53a5.57,5.57,0,0,1-2.18-5.57l7-37.33c.41-2.14,2-3.13,3.65-2.2l53.26,30.76a5.55,5.55,0,0,1,2.18,5.57l-7,37.33C405,192.24,403.37,193.22,401.76,192.29Z"/><path class="cls-186" d="M410.05,147.06l-26.41-15.25-8.28,43.88,26.18,16.48a2.43,2.43,0,0,0,3.82-1.81l7.14-37.87A5.5,5.5,0,0,0,410.05,147.06Z"/><path class="cls-187" d="M357.23,116.55l26.41,15.26-8.22,43.6-26.7-13.75a5.5,5.5,0,0,1-2.45-5.43l7.14-37.87A2.43,2.43,0,0,1,357.23,116.55Z"/><path class="cls-188" d="M346.61,159.08a5.21,5.21,0,0,0,2.11,2.58l52.82,30.51a2.51,2.51,0,0,0,2.58.13l-23.66-43.61Z"/><path class="cls-189" d="M412.17,149.64a5.23,5.23,0,0,0-2.12-2.58l-52.82-30.51a2.51,2.51,0,0,0-2.58-.12L378.32,160Z"/><path class="cls-184" d="M168.88,179.77h0c0-.09.07-.18.11-.27s0-.12.08-.19.05-.13.08-.2a11.45,11.45,0,0,1,4.52-5.54l.55-.32h0l66.72-38.54,66.72-38.53h0l.55-.32a5.49,5.49,0,0,1,5.52-.25l.13.07.13.07,8.81,5.08L317.72,103l17.62,93.42a13.19,13.19,0,0,1-.95,7.46l-.09.2c0,.06-.05.12-.08.19a11.37,11.37,0,0,1-4.52,5.55L196.63,286.66l1.22,5.87-8.34-4.84-.13-.07a6.87,6.87,0,0,1-3.31-5L168,187A13.14,13.14,0,0,1,168.88,179.77Z"/><path class="cls-190" d="M203.82,292.52l134.54-77.71c4.07-2.35,6.53-8.65,5.51-14.08l-17.78-94.29c-1-5.43-5.16-7.92-9.22-5.57l-134.54,77.7c-4.07,2.35-6.54,8.66-5.52,14.08L194.6,287C195.62,292.37,199.75,294.87,203.82,292.52Z"/><path class="cls-191" d="M182.88,178.26l66.72-38.54,20.9,110.85L204.37,292.2c-4.38,2.53-8.69.48-9.64-4.57l-18-95.66C175.73,186.92,178.5,180.78,182.88,178.26Z"/><path class="cls-192" d="M316.32,101.18,249.6,139.72l20.77,110.15,67.44-34.74c4.37-2.53,7.14-8.67,6.19-13.72l-18-95.65C325,100.71,320.69,98.66,316.32,101.18Z"/><path class="cls-188" d="M343.15,208.61a13.18,13.18,0,0,1-5.34,6.52L204.37,292.2a6.34,6.34,0,0,1-6.52.33l59.79-110.16Z"/><path class="cls-193" d="M177.53,184.78a13.1,13.1,0,0,1,5.35-6.52l133.44-77.08a6.34,6.34,0,0,1,6.51-.32L263,211Z"/></g></g></g></svg>